<!-- Generated by IcoMoon.io -->
<svg version="1.1" xmlns="http://www.w3.org/2000/svg" width="1024" height="1024" viewBox="0 0 1024 1024">
<title></title>
<g id="icomoon-ignore">
</g>
<path fill="#000" d="M704.333 516.686l-271.615 271.615c-49.94 49.94-131.048 49.799-180.933-0.086v0c-49.987-49.987-50.105-130.914 0.142-181.162l373.093-373.093c31.307-31.307 81.795-31.577 113.254-0.117v0c31.242 31.242 31.268 81.869 0.168 112.969l-373.706 373.706c-12.394 12.394-32.485 12.398-45.069-0.185v0c-12.497-12.497-12.502-32.753-0.034-45.221l271.563-271.563-22.627-22.627-271.396 271.396c-25.067 25.067-25.3 65.474-0.133 90.642v0c24.994 24.994 65.386 25.124 90.31 0.2l373.595-373.595c43.715-43.715 43.607-114.7-0.043-158.349v0c-43.739-43.739-114.582-43.81-158.448 0.056l-373.318 373.318c-62.472 62.472-62.335 163.896 0.022 226.252v0c62.484 62.484 163.821 62.453 226.469-0.195l271.334-271.334-22.627-22.627z"></path>
</svg>
